<svg width="126" height="47" viewBox="0 0 126 47" fill="none" xmlns="http://www.w3.org/2000/svg">
<path fill-rule="evenodd" clip-rule="evenodd" d="M31.8699 0.0318541C29.6854 0.276199 28.1938 1.49302 27.741 3.40019C27.6703 3.69794 27.5896 4.03697 27.5616 4.15366C27.5336 4.27035 27.4813 4.50221 27.4454 4.6689C27.3132 5.2838 26.9988 6.48716 26.7487 7.33603C26.6603 7.63608 26.5658 7.96341 26.5387 8.06343C26.5116 8.16344 26.4486 8.36802 26.3988 8.51805C26.3489 8.66808 26.2321 9.03632 26.1391 9.33637C26.0462 9.63643 25.9474 9.9078 25.9195 9.93951C25.8917 9.97115 25.8689 10.0553 25.8689 10.1264C25.8689 10.1976 25.8524 10.2723 25.832 10.2925C25.8118 10.3128 25.7158 10.5697 25.6187 10.8634C25.5216 11.1571 25.4174 11.4519 25.3871 11.5186C25.3568 11.5852 25.2854 11.7898 25.2283 11.9732C25.1293 12.2917 24.9525 12.7323 24.8335 12.9574C24.8028 13.0153 24.7778 13.0961 24.7778 13.137C24.7778 13.1986 24.4864 13.9664 24.2878 14.4282C24.2591 14.4948 24.1782 14.6994 24.108 14.8828C23.9774 15.2239 23.918 15.365 23.6937 15.8671C23.6232 16.0252 23.5655 16.1665 23.5655 16.1811C23.5655 16.1959 23.4872 16.3803 23.3916 16.591C23.296 16.8017 23.1504 17.1241 23.0681 17.3074C22.1751 19.2966 21.2692 21.0542 19.9805 23.298C19.4757 24.1769 18.1163 26.1592 17.5053 26.9072C16.6786 27.9194 15.5791 29.0662 14.8367 29.6904C14.4072 30.0516 13.274 30.7906 12.7839 31.0291C11.4946 31.6564 10.1124 31.8754 8.92658 31.6401C8.65987 31.5871 8.36631 31.5289 8.27423 31.5108C8.18215 31.4926 8.09183 31.4536 8.07364 31.4241C8.0554 31.3946 7.99721 31.3705 7.94435 31.3705C7.7953 31.3705 6.97849 30.9623 6.4413 30.6193C6.17465 30.449 5.51999 29.9457 4.98651 29.5008C2.75036 27.6357 1.22937 26.6494 1.04625 26.9458C1.01 27.0044 1.92664 28.6139 2.66174 29.7825C2.85686 30.0926 3.01647 30.3584 3.01647 30.3732C3.01647 30.4085 3.81231 31.6561 4.76702 33.1173C5.18776 33.7614 5.55933 34.3342 5.59267 34.3903C5.62601 34.4464 5.66887 34.5059 5.68796 34.5225C5.70706 34.5392 5.84835 34.7438 6.00195 34.9772C6.3491 35.5045 6.63431 35.9188 6.73208 36.038C6.77312 36.088 6.8735 36.2244 6.95509 36.341C7.14282 36.6095 7.94872 37.7066 8.13505 37.9474C8.57131 38.511 9.4931 39.6703 9.62913 39.8265C11.7598 42.2719 13.2682 43.6923 14.8064 44.7014C15.4435 45.1194 16.7385 45.7972 16.8999 45.7972C16.952 45.7972 17.0205 45.8199 17.0522 45.8476C17.1056 45.8943 17.3761 45.9747 18.1403 46.1709C18.3286 46.2193 18.7991 46.2469 19.3829 46.2437C20.2071 46.2392 20.3969 46.2184 20.9287 46.0736C22.3713 45.6808 23.6623 44.8591 25.091 43.4245C25.6394 42.8739 25.9342 42.54 26.7697 41.5238C26.8245 41.4571 26.9775 41.2525 27.1097 41.0691C27.2419 40.8858 27.3658 40.7221 27.3851 40.7054C27.4668 40.6349 28.2613 39.4504 28.8488 38.5232C30.7434 35.5333 32.5533 32.0928 36.2941 24.3693C36.5201 23.9025 36.9166 23.0842 37.175 22.5508C37.4335 22.0174 37.8345 21.1854 38.0662 20.702C38.8062 19.1577 39.5422 17.6629 41.2745 14.1857C43.4589 9.80106 44.1936 8.37803 45.7339 5.54784C45.8336 5.36448 46.0323 4.99623 46.1754 4.72952C46.4668 4.18621 46.6067 3.93369 46.9257 3.37498C47.0465 3.16343 47.1453 2.98152 47.1453 2.97085C47.1453 2.96012 47.2681 2.74372 47.4181 2.48998C47.5681 2.23624 47.6909 2.01802 47.6909 2.00504C47.6909 1.99207 47.8136 1.77385 47.9636 1.52011C48.1137 1.26637 48.2364 1.04785 48.2364 1.03451C48.2364 1.02118 48.3349 0.844969 48.4553 0.642874C48.5757 0.440778 48.6598 0.237894 48.6422 0.192068C48.6154 0.122298 47.4463 0.102296 41.4675 0.0695027C37.5391 0.0479232 33.8748 0.0191862 33.3247 0.00560814C32.7746 -0.00790935 32.12 0.00384925 31.8699 0.0318541ZM7.35055 0.400526C5.09192 0.788957 3.40199 1.78386 1.88882 3.61605C1.15984 4.49863 0.45166 6.04077 0.208345 7.27541C-0.0623081 8.64886 -0.0693361 9.93096 0.187678 11.0639C0.199013 11.114 0.229565 11.2848 0.255509 11.4435C0.281453 11.6023 0.326853 11.7472 0.356313 11.7653C0.385833 11.7836 0.409959 11.8448 0.409959 11.9014C0.409959 12.1938 1.28405 14.0752 1.4525 14.1453C1.47923 14.1564 1.50106 14.2041 1.50106 14.2513C1.50106 14.2986 1.52833 14.3372 1.56167 14.3372C1.59501 14.3372 1.62229 14.3666 1.62229 14.4026C1.62229 14.5113 2.30374 15.3082 2.81177 15.7936C3.416 16.3709 4.05053 16.8271 4.71373 17.1611C5.06598 17.3385 5.69117 17.6105 5.74657 17.6105C5.77949 17.6105 5.85387 17.6355 5.91176 17.666C5.96965 17.6965 6.20793 17.7663 6.4413 17.8212C6.67468 17.876 6.98504 17.951 7.131 17.9879C7.50131 18.0815 9.45049 18.0751 9.86614 17.979C11.0948 17.6948 11.2169 17.655 12.018 17.277C13.3598 16.6438 14.6194 15.5412 15.4665 14.2584C15.7202 13.8741 15.9278 13.5452 15.9278 13.5274C15.9278 13.5096 16.0264 13.2822 16.1468 13.022C16.4279 12.415 16.4475 12.3659 16.5525 12.0035C17.1469 9.952 17.1469 8.47829 16.5525 6.42678C16.4592 6.10454 16.4393 6.05211 16.231 5.57815C15.9973 5.04606 15.9046 4.85154 15.8703 4.82026C15.8519 4.80353 15.7711 4.66714 15.6907 4.51717C15.2845 3.75935 14.3993 2.75045 13.5941 2.12755C12.3515 1.16641 11.1679 0.652331 9.6167 0.400045C9.15117 0.324335 7.79184 0.324573 7.35055 0.400526Z" fill="#162D23"/>
<path fill-rule="evenodd" clip-rule="evenodd" d="M93.4524 12.4002C91.9151 12.5887 90.2496 13.4301 89.2184 14.5391C88.2415 15.5897 87.7396 16.5756 87.3584 18.1925C87.2068 18.8356 87.2036 21.2687 87.3536 21.8286C87.4153 22.0589 87.5116 22.4148 87.5678 22.6195C87.7415 23.2518 88.2674 24.2946 88.7095 24.8825C89.1423 25.4585 90.1397 26.3878 90.3248 26.3878C90.3818 26.3878 90.4284 26.4249 90.4284 26.47C90.4284 26.5152 90.5016 26.5754 90.5912 26.6039C90.6808 26.6322 90.8587 26.7188 90.9867 26.7962C91.2875 26.9781 91.7802 27.1836 92.2195 27.3105C92.4115 27.366 92.7146 27.4558 92.8933 27.5101C93.39 27.6611 95.5008 27.6345 96.1041 27.4696C97.0203 27.2192 97.2077 27.1507 97.7999 26.8503C100.293 25.5856 101.694 23.1302 101.684 20.0414C101.671 16.3823 99.8514 13.7214 96.6444 12.6727C95.7687 12.3863 94.4693 12.2754 93.4524 12.4002ZM121.368 12.8351C121.239 13.1275 121.133 13.3908 121.133 13.4199C121.133 13.4491 121.066 13.6259 120.984 13.8127C120.902 13.9996 120.802 14.2362 120.762 14.3385C120.664 14.5902 120.202 15.7819 120.113 16.0133C120.041 16.2005 119.964 16.3899 119.714 16.9903C119.64 17.1694 119.484 17.5672 119.368 17.8742C119.253 18.1813 119.098 18.5677 119.026 18.7329C118.953 18.8982 118.833 19.2026 118.761 19.4095C118.688 19.6163 118.559 19.9417 118.475 20.1325C118.392 20.3233 118.29 20.5632 118.25 20.6656C117.438 22.7529 116.647 24.1934 116.078 24.62C115.731 24.8796 115.174 25.1782 115.036 25.1782C114.961 25.1782 114.899 25.2201 114.899 25.2713C114.899 25.3306 115.664 25.3643 117.008 25.3643C118.168 25.3643 119.086 25.3329 119.048 25.2945C119.009 25.2562 118.803 25.1573 118.59 25.0749C118.361 24.9865 118.112 24.7955 117.983 24.6096C117.784 24.3234 117.769 24.2273 117.818 23.57C117.847 23.1715 117.964 22.5748 118.078 22.2441L118.284 21.6425H120.641H122.998L123.101 21.8984C123.299 22.392 123.352 22.5339 123.691 23.4569C123.878 23.9687 124.069 24.4711 124.114 24.5734C124.639 25.7522 124.828 27.5319 124.536 28.5369C124.239 29.5604 123.595 30.3167 122.622 30.7848C122.061 31.055 121.944 31.0764 120.994 31.0813C120.338 31.0846 119.853 31.041 119.644 30.9595C118.37 30.4623 117.88 30.1138 116.117 28.4529C113.73 26.2025 112.775 25.6447 110.859 25.3806L110.4 25.3174L110.859 25.0893C112.655 24.1949 113.874 22.9695 114.429 21.5006C114.787 20.5526 114.899 19.9887 114.898 19.149C114.894 17.1594 114.062 15.4231 112.541 14.2333C111.668 13.55 111.145 13.3184 109.538 12.9024C109.116 12.793 102.878 12.76 102.771 12.8666C102.736 12.9014 102.886 12.9895 103.104 13.0622C103.593 13.2252 103.789 13.3944 104.046 13.8733C104.246 14.2455 104.246 14.2457 104.246 22.2008C104.246 29.5395 104.233 30.1826 104.085 30.4965C103.88 30.9312 103.531 31.2044 103.012 31.3348C102.23 31.5319 102.827 31.5955 105.409 31.5903C107.933 31.5853 108.775 31.5127 107.95 31.3715C107.518 31.2975 106.946 30.909 106.847 30.6214C106.536 29.7261 106.533 29.6572 106.529 22.1599C106.525 14.0204 106.537 13.804 107.018 13.3991C107.249 13.205 107.379 13.1755 108.007 13.1755C108.405 13.1755 108.873 13.2208 109.047 13.2761C110.514 13.743 111.6 14.8847 112.138 16.5251C112.545 17.7696 112.706 19.0519 112.572 19.9852C112.283 21.9913 111.785 23.1539 110.763 24.2056C110.108 24.8808 109.894 25.0118 108.39 25.6607L108.068 25.7995L108.855 25.8638C110.417 25.9913 110.946 26.3309 113.317 28.7272C115.776 31.212 116.562 31.7013 118.522 31.9697C119.156 32.0565 119.473 32.0487 120.31 31.926C121.344 31.7744 121.445 31.7454 122.335 31.3468C124.597 30.333 126.021 27.9375 126 25.1782C125.992 24.1527 125.825 23.0921 125.522 22.1527C125.367 21.6707 124.281 18.79 123.996 18.1068C123.943 17.9789 123.868 17.7905 123.829 17.6881C123.789 17.5858 123.69 17.3492 123.608 17.1623C123.526 16.9755 123.459 16.7845 123.459 16.7379C123.459 16.6913 123.376 16.4798 123.273 16.2679C123.171 16.056 123.087 15.8263 123.087 15.7573C123.087 15.6883 123.05 15.592 123.005 15.5434C122.96 15.4949 122.872 15.2876 122.808 15.0829C122.745 14.8782 122.631 14.5642 122.555 14.385C122.364 13.9342 122.299 13.7694 122.059 13.1289C121.727 12.2426 121.646 12.2082 121.368 12.8351ZM93.4453 12.8854C92.4997 13.1561 91.704 13.7271 91.0774 14.5844C90.8771 14.8585 90.6794 15.1247 90.6381 15.1759C90.4944 15.3545 89.9537 16.731 89.8584 17.1614C89.2847 19.7512 89.4634 22.2438 90.3664 24.2478C90.7705 25.1446 91.5136 26.0629 92.2505 26.576C93.3029 27.309 94.8573 27.4284 96.054 26.8684C97.4558 26.2124 98.5016 24.7541 99.04 22.7046C99.4395 21.1836 99.348 17.6947 98.8845 16.7822C98.8394 16.6934 98.8024 16.5602 98.8024 16.4861C98.8024 16.4121 98.6156 15.9812 98.3874 15.5286C97.668 14.1022 96.6181 13.1936 95.2999 12.8564C94.5841 12.6734 94.1627 12.68 93.4453 12.8854ZM48.6681 12.884C48.5886 12.9344 48.7118 12.9816 49.0169 13.0177C50.0228 13.1369 50.7593 13.6799 51.1621 14.5994C51.5375 15.4561 51.5797 15.5768 51.9989 16.9903C52.1128 17.3741 52.239 17.7719 52.2796 17.8742C52.3202 17.9766 52.4674 18.4371 52.607 18.8977C52.7466 19.3583 52.9771 20.091 53.1194 20.526C53.3675 21.2844 53.8157 22.71 54.3042 24.2943C54.4305 24.7037 54.6706 25.4574 54.838 25.9691C55.0054 26.4809 55.2353 27.2136 55.3489 27.5974C55.4626 27.9812 55.5873 28.379 55.6262 28.4813C55.6651 28.5837 55.741 28.814 55.7947 28.9931C56.1634 30.2209 56.6737 31.7605 56.7508 31.8775C56.8303 31.9981 56.8614 31.9926 56.9806 31.8364C57.0564 31.7371 57.1184 31.5795 57.1184 31.4862C57.1184 31.393 57.1558 31.2439 57.2015 31.1551C57.2471 31.0662 57.3998 30.6167 57.5406 30.1561C57.6815 29.6956 57.8903 29.0256 58.0046 28.6674C58.119 28.3092 58.3071 27.7021 58.4228 27.3183C58.5384 26.9345 58.7268 26.3273 58.8415 25.9691C58.9561 25.6109 59.1429 25.0038 59.2566 24.62C59.3703 24.2362 59.4966 23.8384 59.5372 23.736C59.5777 23.6337 59.7235 23.1731 59.8612 22.7125C60.2803 21.3098 60.3052 21.2302 60.3825 21.0377C60.4236 20.9354 60.5662 20.4748 60.6992 20.0143C60.8323 19.5537 60.9764 19.0931 61.0196 18.9908C61.0627 18.8884 61.1495 18.6163 61.2123 18.386C61.2752 18.1557 61.3599 17.8835 61.4006 17.7812C61.4412 17.6788 61.5899 17.2183 61.731 16.7577C61.8719 16.2971 62.0223 15.8806 62.0651 15.8319C62.1078 15.7833 62.1428 15.6838 62.1428 15.6107C62.1428 15.325 62.8332 14.0827 63.2042 13.7011C63.5781 13.3163 64.2548 12.9894 64.6771 12.9894C64.7734 12.9894 64.8262 12.9475 64.7946 12.8963C64.7238 12.7817 60.4774 12.7707 60.2976 12.8847C60.2137 12.9378 60.2952 12.9826 60.5504 13.0234C61.1543 13.1199 61.3826 13.2702 61.596 13.7109C61.7669 14.0639 61.7877 14.2225 61.7375 14.7899C61.6791 15.4494 61.4542 16.4635 61.1874 17.2694C61.1112 17.4997 60.9806 17.9184 60.8972 18.1999C60.5358 19.4194 60.3479 20.0265 60.2779 20.2003C60.2368 20.3027 60.1313 20.6377 60.0436 20.9447C59.9559 21.2517 59.7902 21.7961 59.6754 22.1543C59.5607 22.5125 59.373 23.1196 59.2582 23.5034C59.1435 23.8872 58.9738 24.4316 58.8811 24.713C58.7883 24.9945 58.6026 25.6016 58.4684 26.0622C58.334 26.5227 58.1891 26.9833 58.1462 27.0857C58.1034 27.188 58.0068 27.4806 57.9315 27.7359L57.7945 28.2001L57.5432 27.3638C57.1626 26.0972 57.0988 25.8922 57.0217 25.69C56.9828 25.5876 56.8807 25.2527 56.7951 24.9456C56.7093 24.6386 56.5229 24.0105 56.3808 23.5499C56.2387 23.0894 56.0486 22.4613 55.9584 22.1543C55.8681 21.8472 55.7155 21.3483 55.619 21.0456C55.5225 20.743 55.4436 20.4268 55.4436 20.3432C55.4436 20.2595 55.4079 20.1512 55.3644 20.1026C55.3208 20.0541 55.213 19.7421 55.1248 19.4095C54.9378 18.7044 54.7957 18.2284 54.6941 17.9673C54.6543 17.8649 54.6007 17.6974 54.5749 17.5951C54.5492 17.4927 54.4177 17.0322 54.2826 16.5716C53.8256 15.0134 53.7513 14.5685 53.8731 14.1223C54.0134 13.6082 54.4241 13.1985 54.9366 13.0615C55.1582 13.0022 55.3185 12.9199 55.293 12.8785C55.2312 12.7786 48.826 12.7839 48.6681 12.884ZM65.3596 12.8854C65.3312 12.9313 65.4437 12.9946 65.6096 13.0259C66.1217 13.1228 66.5139 13.428 66.7316 13.8991L66.9346 14.3385V22.2008C66.9346 30.0091 66.9333 30.066 66.738 30.4831C66.4945 31.0031 66.3572 31.1192 65.7449 31.3228C65.3126 31.4665 65.2851 31.4905 65.4924 31.5436C65.6203 31.5764 68.1938 31.5916 71.2112 31.5775L76.6973 31.5518L76.7659 31.2727C76.9472 30.5341 77.4113 27.3894 77.3482 27.3264C77.3267 27.3049 77.3091 27.3571 77.3091 27.4423C77.3091 27.5276 77.2672 27.5974 77.2161 27.5974C77.1649 27.5974 77.123 27.6817 77.123 27.7848C77.123 27.8878 77.0861 28.0448 77.0408 28.1337C76.9956 28.2226 76.9018 28.4208 76.8323 28.5744C76.1884 29.9978 75.0662 30.9017 73.6597 31.1299C72.8884 31.2551 70.7416 31.2525 70.1502 31.1256C69.792 31.0488 69.6318 30.9555 69.4711 30.7301C69.2611 30.4358 69.2606 30.4271 69.2309 26.1785L69.2009 21.9217H71.2126C73.3553 21.9217 73.5103 21.949 73.9288 22.4013C74.1309 22.6197 74.3594 23.139 74.4651 23.6197C74.496 23.7604 74.5624 23.8756 74.6126 23.8756C74.6696 23.8756 74.7038 23.0564 74.7038 21.6891C74.7038 20.3217 74.6696 19.5025 74.6126 19.5025C74.5624 19.5025 74.4962 19.6177 74.4655 19.7584C74.3669 20.2096 74.2145 20.5648 73.9863 20.875C73.5812 21.4257 73.4349 21.4564 71.2183 21.4564H69.2122L69.2365 17.3392L69.2607 13.222L71.3542 13.2264C72.5533 13.2289 73.5917 13.2733 73.7847 13.3302C74.8586 13.647 75.8689 14.493 76.3225 15.4551C76.4672 15.7621 76.6228 16.086 76.6682 16.1749C76.7137 16.2637 76.7508 16.3947 76.7508 16.4659C76.7508 16.5371 76.8042 16.6397 76.8696 16.6939C77.0633 16.8546 77.0087 16.2797 76.6412 14.292C76.5892 14.0105 76.5192 13.5709 76.4859 13.315L76.4252 12.8498L70.9182 12.8258C67.7341 12.8119 65.3895 12.8371 65.3596 12.8854ZM79.4136 12.8785C79.3881 12.9199 79.5433 13.0008 79.7587 13.0584C79.974 13.116 80.2687 13.2817 80.4135 13.4266C80.9475 13.9605 80.935 13.7489 80.9364 22.2251C80.9378 29.9896 80.9371 30.0202 80.7393 30.4411C80.5007 30.9484 80.0929 31.279 79.5903 31.3723C78.8574 31.5084 79.5595 31.5851 81.5962 31.5918C84.4382 31.601 85.8324 31.8147 88.614 32.6672C89.2281 32.8554 89.8143 33.0304 89.9167 33.056C90.019 33.0816 90.1865 33.1352 90.2888 33.175C91.5018 33.6468 93.5327 33.9766 94.6092 33.8766C96.2787 33.7215 97.1389 33.2851 98.4989 31.9034C99.2687 31.1214 99.967 30.1503 99.8233 30.0615C99.7709 30.029 99.4411 30.2152 99.0904 30.4752C98.421 30.9715 97.2438 31.6244 96.8485 31.7186C96.7206 31.7492 96.2809 31.863 95.8715 31.9718C95.2479 32.1375 94.8557 32.1702 93.4524 32.1735C91.86 32.1774 90.7559 32.0708 88.3349 31.6796C86.7274 31.4199 84.3472 31.1371 83.7497 31.135L83.2583 31.1331L83.2844 22.6893C83.3123 13.6447 83.293 14.0114 83.7702 13.4698C83.9837 13.2274 84.4846 12.9901 84.7873 12.988C84.9492 12.9868 84.9599 12.9701 84.8457 12.8963C84.6763 12.7868 79.4808 12.7698 79.4136 12.8785ZM120.575 15.7167C120.575 15.7963 120.466 16.1259 120.332 16.4492C120.199 16.7724 120.058 17.1206 120.019 17.2229C119.98 17.3253 119.901 17.5137 119.844 17.6416C119.439 18.5405 118.443 21.2084 118.486 21.2779C118.516 21.3258 119.476 21.3634 120.673 21.3634C123.032 21.3634 122.949 21.3877 122.679 20.7726C122.609 20.6114 122.5 20.3329 122.437 20.1538C122.375 19.9747 122.291 19.7444 122.25 19.6421C122.209 19.5397 122.123 19.3094 122.059 19.1303C121.995 18.9512 121.889 18.6791 121.824 18.5255C121.758 18.372 121.554 17.8277 121.37 17.316C121.187 16.8042 120.995 16.3128 120.945 16.224C120.895 16.1351 120.854 16.0041 120.854 15.9329C120.854 15.8617 120.791 15.7514 120.714 15.6877C120.601 15.5931 120.575 15.5984 120.575 15.7167Z" fill="#162D23"/>
</svg>
