<svg width="229" height="84" viewBox="0 0 229 84" fill="none" xmlns="http://www.w3.org/2000/svg">
<path fill-rule="evenodd" clip-rule="evenodd" d="M57.8903 0.0578615C53.9222 0.501703 51.2127 2.71199 50.3902 6.17629C50.2618 6.71714 50.1151 7.33297 50.0643 7.54493C50.0134 7.75689 49.9185 8.17805 49.8533 8.48084C49.6131 9.59777 49.042 11.7836 48.5877 13.3256C48.4271 13.8706 48.2555 14.4652 48.2063 14.6468C48.1571 14.8285 48.0427 15.2001 47.9521 15.4726C47.8616 15.7452 47.6493 16.4141 47.4805 16.9591C47.3117 17.5041 47.1322 17.9971 47.0816 18.0546C47.0311 18.1121 46.9897 18.265 46.9897 18.3941C46.9897 18.5234 46.9596 18.6591 46.9227 18.6959C46.8859 18.7328 46.7115 19.1993 46.5351 19.7328C46.3587 20.2663 46.1695 20.8018 46.1144 20.9229C46.0595 21.0441 45.9297 21.4157 45.826 21.7487C45.6461 22.3274 45.3251 23.1276 45.1088 23.5364C45.0532 23.6416 45.0077 23.7885 45.0077 23.8627C45.0077 23.9747 44.4784 25.3693 44.1176 26.2081C44.0654 26.3292 43.9185 26.7008 43.791 27.0339C43.5538 27.6536 43.446 27.9098 43.0386 28.8219C42.9104 29.109 42.8056 29.3656 42.8056 29.3923C42.8056 29.419 42.6634 29.754 42.4897 30.1367C42.316 30.5194 42.0516 31.1051 41.902 31.4382C40.2799 35.0514 38.6345 38.244 36.2936 42.3197C35.3768 43.9162 32.9074 47.517 31.7976 48.8756C30.2959 50.7143 28.2986 52.7973 26.9502 53.9313C26.1701 54.5873 24.1116 55.9296 23.2213 56.3629C20.8794 57.5024 18.3687 57.9001 16.2147 57.4727C15.7302 57.3765 15.197 57.2708 15.0297 57.2379C14.8625 57.2049 14.6984 57.134 14.6654 57.0805C14.6323 57.0268 14.5266 56.983 14.4305 56.983C14.1598 56.983 12.6761 56.2416 11.7003 55.6186C11.216 55.3092 10.0268 54.395 9.05776 53.5868C4.99591 50.199 2.23309 48.4074 1.90046 48.9458C1.83462 49.0522 3.49966 51.9758 4.83492 54.0984C5.18936 54.6618 5.47928 55.1447 5.47928 55.1715C5.47928 55.2356 6.92488 57.5018 8.65906 60.1561C9.42332 61.326 10.0983 62.3665 10.1588 62.4683C10.2194 62.5702 10.2972 62.6783 10.3319 62.7086C10.3666 62.7389 10.6233 63.1105 10.9023 63.5344C11.5328 64.4923 12.0509 65.2449 12.2285 65.4613C12.3031 65.5521 12.4854 65.7998 12.6336 66.0118C12.9746 66.4995 14.4385 68.4923 14.7769 68.9296C15.5694 69.9534 17.2438 72.0593 17.4909 72.343C21.3611 76.785 24.101 79.3649 26.8951 81.198C28.0524 81.9573 30.4047 83.1885 30.6979 83.1885C30.7926 83.1885 30.917 83.2297 30.9746 83.28C31.0716 83.3648 31.5629 83.5108 32.951 83.8673C33.2931 83.9552 34.1476 84.0053 35.2082 83.9996C36.7052 83.9914 37.0501 83.9535 38.0159 83.6905C40.6364 82.977 42.9814 81.4845 45.5766 78.8786C46.5728 77.8784 47.1083 77.2719 48.6258 75.426C48.7255 75.3048 49.0034 74.9332 49.2434 74.6002C49.4836 74.2671 49.7086 73.9698 49.7438 73.9395C49.8921 73.8113 51.3353 71.6599 52.4024 69.9757C55.844 64.5446 59.1315 58.2951 65.9265 44.2656C66.3371 43.4178 67.0572 41.9314 67.5267 40.9624C67.9962 39.9935 68.7247 38.4823 69.1454 37.6042C70.4896 34.7991 71.8265 32.0838 74.9731 25.7677C78.9411 17.8032 80.2756 15.2183 83.0734 10.0774C83.2546 9.74432 83.6156 9.07542 83.8754 8.59095C84.4048 7.60406 84.6588 7.14536 85.2383 6.1305C85.4578 5.74623 85.6372 5.41579 85.6372 5.39642C85.6372 5.37693 85.8602 4.98383 86.1327 4.52292C86.4052 4.06202 86.6282 3.66563 86.6282 3.64207C86.6282 3.61851 86.8512 3.22212 87.1237 2.76121C87.3962 2.3003 87.6192 1.90337 87.6192 1.87914C87.6192 1.85492 87.7981 1.53485 88.0168 1.16775C88.2354 0.800653 88.3882 0.432123 88.3562 0.348882C88.3076 0.222149 86.1839 0.185816 75.3238 0.126248C68.188 0.0870502 61.532 0.0348509 60.5328 0.0101869C59.5336 -0.014367 58.3444 0.00699199 57.8903 0.0578615ZM13.3519 0.727536C9.24923 1.4331 6.17955 3.24029 3.43095 6.56839C2.1068 8.17155 0.820418 10.9728 0.378448 13.2154C-0.11318 15.7103 -0.125946 18.0391 0.340908 20.0971C0.361498 20.188 0.416995 20.4983 0.464121 20.7866C0.511247 21.0751 0.593713 21.3382 0.647225 21.3712C0.700847 21.4043 0.744671 21.5155 0.744671 21.6184C0.744671 22.1495 2.33241 25.5669 2.6384 25.6942C2.68696 25.7145 2.7266 25.8011 2.7266 25.8869C2.7266 25.9727 2.77615 26.0429 2.83671 26.0429C2.89726 26.0429 2.94681 26.0963 2.94681 26.1617C2.94681 26.3591 4.18464 27.8066 5.10745 28.6884C6.205 29.7369 7.35759 30.5657 8.56227 31.1724C9.20211 31.4946 10.3377 31.9887 10.4384 31.9887C10.4982 31.9887 10.6333 32.0341 10.7384 32.0895C10.8436 32.1448 11.2764 32.2717 11.7003 32.3713C12.1242 32.4709 12.688 32.6072 12.9531 32.6741C13.6258 32.8441 17.1664 32.8326 17.9214 32.658C20.1532 32.1419 20.375 32.0695 21.8302 31.3828C24.2675 30.2326 26.5554 28.2299 28.0942 25.8997C28.555 25.2017 28.9321 24.6043 28.9321 24.5719C28.9321 24.5395 29.1111 24.1265 29.3299 23.6539C29.8406 22.5512 29.8762 22.4621 30.0669 21.8038C31.1466 18.0773 31.1466 15.4004 30.0669 11.6739C29.8973 11.0886 29.8612 10.9934 29.4828 10.1324C29.0583 9.16593 28.89 8.81259 28.8277 8.75577C28.7942 8.72538 28.6475 8.47764 28.5015 8.20524C27.7636 6.82868 26.1556 4.99605 24.693 3.86459C22.436 2.11874 20.2859 1.18493 17.4683 0.726663C16.6227 0.589139 14.1535 0.589572 13.3519 0.727536Z" fill="white"/>
<path fill-rule="evenodd" clip-rule="evenodd" d="M169.752 22.5244C166.959 22.8668 163.934 24.3952 162.061 26.4096C160.286 28.3179 159.375 30.1088 158.682 33.0458C158.407 34.214 158.401 38.6335 158.673 39.6507C158.786 40.069 158.961 40.7154 159.063 41.0873C159.378 42.2359 160.334 44.13 161.136 45.198C161.923 46.2441 163.734 47.9322 164.071 47.9322C164.174 47.9322 164.259 47.9995 164.259 48.0815C164.259 48.1636 164.392 48.2729 164.555 48.3247C164.717 48.3762 165.04 48.5334 165.273 48.674C165.819 49.0044 166.714 49.3778 167.512 49.6083C167.861 49.709 168.412 49.8721 168.736 49.9708C169.638 50.2451 173.472 50.1968 174.569 49.8971C176.233 49.4423 176.573 49.3179 177.649 48.7724C182.178 46.475 184.722 42.015 184.703 36.4043C184.681 29.7577 181.375 24.9243 175.55 23.0194C173.959 22.4992 171.599 22.2977 169.752 22.5244ZM220.46 23.3144C220.225 23.8456 220.033 24.3237 220.033 24.3766C220.033 24.4296 219.911 24.7508 219.762 25.0902C219.613 25.4295 219.432 25.8593 219.359 26.0452C219.18 26.5024 218.341 28.6671 218.18 29.0874C218.049 29.4275 217.908 29.7714 217.455 30.8621C217.32 31.1874 217.037 31.9099 216.827 32.4677C216.617 33.0254 216.337 33.7273 216.204 34.0275C216.072 34.3276 215.855 34.8806 215.723 35.2564C215.59 35.6321 215.357 36.2231 215.205 36.5697C215.053 36.9164 214.869 37.3521 214.796 37.538C213.321 41.3296 211.883 43.9462 210.849 44.721C210.22 45.1925 209.208 45.7351 208.958 45.7351C208.821 45.7351 208.709 45.8111 208.709 45.9041C208.709 46.0117 210.098 46.0731 212.54 46.0731C214.647 46.0731 216.314 46.016 216.244 45.9463C216.174 45.8767 215.8 45.697 215.413 45.5473C214.998 45.3867 214.545 45.0399 214.311 44.7022C213.95 44.1823 213.922 44.0078 214.01 42.8137C214.064 42.0898 214.276 41.0061 214.482 40.4053L214.857 39.3126H219.139H223.42L223.607 39.7774C223.966 40.674 224.064 40.9318 224.678 42.6084C225.019 43.5379 225.365 44.4506 225.448 44.6365C226.401 46.7777 226.745 50.0104 226.214 51.8359C225.674 53.695 224.504 55.0689 222.737 55.9192C221.717 56.41 221.505 56.4487 219.779 56.4577C218.588 56.4638 217.708 56.3845 217.328 56.2364C215.013 55.3332 214.123 54.7003 210.922 51.6833C206.584 47.5956 204.85 46.5823 201.369 46.1027L200.537 45.9879L201.369 45.5735C204.632 43.9489 206.847 41.7231 207.854 39.0547C208.505 37.3328 208.709 36.3086 208.706 34.7833C208.7 31.1693 207.188 28.0154 204.426 25.8541C202.839 24.613 201.89 24.1922 198.971 23.4365C198.204 23.2379 186.872 23.1779 186.679 23.3716C186.615 23.4348 186.888 23.5947 187.284 23.7269C188.172 24.023 188.529 24.3303 188.995 25.2002C189.357 25.8762 189.357 25.8766 189.357 40.3267C189.357 53.6571 189.334 54.8252 189.065 55.3954C188.693 56.185 188.058 56.6813 187.117 56.9182C185.696 57.2762 186.78 57.3918 191.47 57.3823C196.055 57.3732 197.585 57.2414 196.086 56.9848C195.301 56.8505 194.263 56.1446 194.082 55.6222C193.517 53.996 193.513 53.871 193.505 40.2523C193.497 25.4674 193.519 25.0743 194.393 24.3389C194.812 23.9862 195.049 23.9326 196.19 23.9326C196.912 23.9326 197.762 24.0149 198.078 24.1155C200.743 24.9636 202.716 27.0373 203.692 30.017C204.433 32.2777 204.725 34.6068 204.481 36.3022C203.957 39.9461 203.052 42.0579 201.196 43.9684C200.005 45.1948 199.617 45.4327 196.885 46.6114L196.3 46.8636L197.73 46.9803C200.567 47.212 201.528 47.8288 205.836 52.1817C210.302 56.6951 211.729 57.584 215.289 58.0714C216.441 58.2291 217.017 58.2149 218.537 57.9921C220.415 57.7166 220.599 57.6641 222.215 56.94C226.325 55.0985 228.91 50.7471 228.873 45.7351C228.859 43.8722 228.554 41.9456 228.005 40.2393C227.723 39.3638 225.75 34.1311 225.233 32.8902C225.137 32.6578 225 32.3156 224.929 32.1296C224.858 31.9437 224.678 31.514 224.529 31.1746C224.38 30.8352 224.258 30.4882 224.258 30.4035C224.258 30.3189 224.106 29.9347 223.92 29.5499C223.734 29.165 223.582 28.7477 223.582 28.6223C223.582 28.4971 223.515 28.3221 223.433 28.2339C223.351 28.1457 223.19 27.7691 223.075 27.3973C222.96 27.0255 222.753 26.4551 222.615 26.1297C222.268 25.3109 222.15 25.0114 221.714 23.8481C221.11 22.2381 220.963 22.1756 220.46 23.3144ZM169.739 23.4056C168.021 23.8974 166.576 24.9347 165.438 26.4919C165.074 26.9898 164.715 27.4734 164.64 27.5663C164.379 27.8907 163.397 30.391 163.223 31.1729C162.181 35.8772 162.506 40.4048 164.146 44.045C164.88 45.6741 166.23 47.342 167.569 48.2741C169.48 49.6054 172.304 49.8224 174.477 48.8052C177.024 47.6136 178.923 44.9647 179.901 41.2417C180.627 38.4791 180.461 32.1416 179.619 30.4841C179.537 30.3227 179.47 30.0807 179.47 29.9462C179.47 29.8118 179.13 29.0291 178.716 28.2069C177.409 25.616 175.502 23.9656 173.108 23.3531C171.807 23.0206 171.042 23.0326 169.739 23.4056ZM88.4031 23.4032C88.2588 23.4947 88.4825 23.5805 89.0367 23.6461C90.8639 23.8626 92.2018 24.849 92.9334 26.5191C93.6152 28.0752 93.692 28.2944 94.4534 30.8621C94.6602 31.5592 94.8896 32.2818 94.9633 32.4677C95.0369 32.6536 95.3045 33.4902 95.558 34.3268C95.8115 35.1634 96.2303 36.4944 96.4888 37.2845C96.9393 38.6621 97.7535 41.2517 98.6409 44.1295C98.8703 44.8731 99.3065 46.2421 99.6106 47.1717C99.9146 48.1012 100.332 49.4322 100.538 50.1294C100.745 50.8265 100.972 51.5491 101.042 51.735C101.113 51.9209 101.251 52.3392 101.348 52.6645C102.018 54.8948 102.945 57.6914 103.085 57.9039C103.229 58.1231 103.286 58.113 103.502 57.8294C103.64 57.6489 103.753 57.3627 103.753 57.1932C103.753 57.0238 103.821 56.7531 103.904 56.5917C103.987 56.4303 104.264 55.6138 104.52 54.7772C104.776 53.9406 105.155 52.7237 105.363 52.073C105.57 51.4223 105.912 50.3195 106.122 49.6223C106.332 48.9252 106.674 47.8224 106.883 47.1717C107.091 46.521 107.43 45.4182 107.637 44.721C107.843 44.0238 108.073 43.3013 108.146 43.1154C108.22 42.9295 108.485 42.0929 108.735 41.2563C109.496 38.7082 109.541 38.5636 109.682 38.2141C109.757 38.0281 110.015 37.1915 110.257 36.3549C110.499 35.5183 110.761 34.6817 110.839 34.4958C110.917 34.3099 111.075 33.8155 111.189 33.3972C111.303 32.9789 111.457 32.4846 111.531 32.2987C111.605 32.1127 111.875 31.2761 112.131 30.4395C112.387 29.6029 112.66 28.8463 112.738 28.7579C112.816 28.6697 112.879 28.4888 112.879 28.3561C112.879 27.8371 114.133 25.5806 114.807 24.8873C115.486 24.1885 116.716 23.5946 117.483 23.5946C117.658 23.5946 117.754 23.5185 117.696 23.4256C117.568 23.2173 109.854 23.1974 109.528 23.4044C109.375 23.5009 109.523 23.5822 109.987 23.6564C111.084 23.8317 111.499 24.1046 111.886 24.9052C112.197 25.5465 112.234 25.8345 112.143 26.8651C112.037 28.0631 111.628 29.9051 111.144 31.3691C111.006 31.7874 110.768 32.5479 110.617 33.0592C109.96 35.2744 109.619 36.3772 109.492 36.693C109.417 36.8789 109.225 37.4873 109.066 38.0451C108.907 38.6028 108.606 39.5915 108.397 40.2422C108.189 40.8929 107.848 41.9957 107.64 42.6929C107.431 43.39 107.123 44.3788 106.955 44.89C106.786 45.4013 106.449 46.5041 106.205 47.3407C105.961 48.1773 105.698 49.0139 105.62 49.1998C105.542 49.3857 105.366 49.9173 105.23 50.381L104.981 51.2241L104.524 49.705C103.833 47.4044 103.717 47.0319 103.577 46.6646C103.506 46.4787 103.321 45.8703 103.165 45.3125C103.01 44.7548 102.671 43.614 102.413 42.7774C102.155 41.9408 101.81 40.7999 101.646 40.2422C101.482 39.6845 101.204 38.7782 101.029 38.2284C100.854 37.6786 100.71 37.1043 100.71 36.9524C100.71 36.8004 100.646 36.6037 100.567 36.5155C100.487 36.4273 100.292 35.8606 100.131 35.2564C99.7917 33.9756 99.5337 33.1111 99.3491 32.6367C99.2768 32.4508 99.1794 32.1465 99.1326 31.9606C99.0859 31.7747 98.847 30.9381 98.6016 30.1015C97.7715 27.2711 97.6365 26.463 97.8577 25.6524C98.1126 24.7187 98.8586 23.9745 99.7896 23.7255C100.192 23.6179 100.483 23.4683 100.437 23.3931C100.325 23.2118 88.6899 23.2214 88.4031 23.4032ZM118.723 23.4056C118.671 23.4891 118.875 23.604 119.177 23.661C120.107 23.8369 120.819 24.3913 121.215 25.247L121.583 26.0452V40.3267C121.583 54.5101 121.581 54.6134 121.226 55.3711C120.784 56.3157 120.535 56.5266 119.422 56.8964C118.637 57.1574 118.587 57.201 118.964 57.2975C119.196 57.357 123.871 57.3847 129.352 57.359L139.317 57.3124L139.442 56.8053C139.771 55.4637 140.614 49.7516 140.499 49.637C140.46 49.598 140.428 49.6928 140.428 49.8476C140.428 50.0026 140.352 50.1294 140.259 50.1294C140.166 50.1294 140.09 50.2825 140.09 50.4697C140.09 50.6568 140.023 50.9421 139.941 51.1035C139.859 51.2649 139.688 51.6251 139.562 51.904C138.392 54.4895 136.354 56.1315 133.799 56.5461C132.398 56.7734 128.499 56.7686 127.424 56.5381C126.774 56.3987 126.483 56.2291 126.191 55.8198C125.809 55.2852 125.809 55.2693 125.754 47.5519L125.7 39.8197H129.354C133.246 39.8197 133.528 39.8694 134.288 40.6909C134.655 41.0876 135.07 42.0308 135.262 42.9041C135.318 43.1597 135.439 43.3689 135.53 43.3689C135.634 43.3689 135.696 41.8809 135.696 39.3971C135.696 36.9134 135.634 35.4254 135.53 35.4254C135.439 35.4254 135.319 35.6346 135.263 35.8901C135.084 36.7099 134.807 37.355 134.392 37.9185C133.657 38.9188 133.391 38.9746 129.365 38.9746H125.721L125.765 31.4959L125.809 24.0171L129.611 24.0251C131.79 24.0296 133.676 24.1102 134.026 24.2137C135.977 24.7892 137.812 26.3258 138.636 28.0734C138.899 28.6311 139.182 29.2194 139.264 29.3809C139.347 29.5423 139.414 29.7802 139.414 29.9095C139.414 30.0388 139.511 30.2252 139.63 30.3236C139.982 30.6156 139.882 29.5713 139.215 25.9607C139.121 25.4495 138.993 24.6509 138.933 24.1861L138.823 23.341L128.819 23.2974C123.036 23.2722 118.777 23.3179 118.723 23.4056ZM144.251 23.3931C144.205 23.4683 144.486 23.6153 144.878 23.72C145.269 23.8246 145.804 24.1256 146.067 24.3887C147.037 25.3585 147.014 24.9742 147.017 40.3708C147.02 54.4746 147.018 54.5303 146.659 55.2949C146.226 56.2163 145.485 56.8168 144.572 56.9863C143.241 57.2334 144.516 57.3729 148.216 57.385C153.378 57.4018 155.91 57.7898 160.963 59.3385C162.079 59.6802 163.143 59.9981 163.329 60.0446C163.515 60.0912 163.819 60.1884 164.005 60.2608C166.209 61.1178 169.898 61.7168 171.853 61.5353C174.886 61.2535 176.448 60.4609 178.919 57.9511C180.317 56.5305 181.585 54.7665 181.324 54.6053C181.229 54.5463 180.63 54.8845 179.993 55.3567C178.777 56.2582 176.639 57.4442 175.921 57.6154C175.688 57.6708 174.89 57.8777 174.146 58.0753C173.013 58.3763 172.301 58.4356 169.752 58.4417C166.859 58.4488 164.854 58.2551 160.456 57.5446C157.536 57.0727 153.213 56.5591 152.127 56.5552L151.235 56.5518L151.282 41.214C151.333 24.7849 151.298 25.451 152.165 24.4672C152.552 24.0269 153.462 23.5959 154.012 23.592C154.306 23.5899 154.326 23.5596 154.118 23.4256C153.81 23.2266 144.373 23.1957 144.251 23.3931ZM219.019 28.5486C219.019 28.6933 218.82 29.292 218.578 29.8791C218.335 30.4663 218.08 31.0987 218.009 31.2846C217.938 31.4705 217.795 31.8127 217.69 32.0451C216.956 33.678 215.146 38.524 215.224 38.6503C215.278 38.7373 217.022 38.8056 219.198 38.8056C223.481 38.8056 223.331 38.8497 222.841 37.7325C222.713 37.4396 222.515 36.9338 222.401 36.6084C222.288 36.2831 222.135 35.8648 222.061 35.6789C221.987 35.493 221.831 35.0747 221.714 34.7493C221.598 34.424 221.406 33.9296 221.287 33.6507C221.168 33.3719 220.798 32.3832 220.464 31.4536C220.129 30.524 219.782 29.6315 219.691 29.4701C219.6 29.3087 219.526 29.0707 219.526 28.9414C219.526 28.8121 219.411 28.6117 219.272 28.4959C219.065 28.3242 219.019 28.3338 219.019 28.5486Z" fill="white"/>
</svg>
