<svg width="27" height="28" viewBox="0 0 27 28" fill="none" xmlns="http://www.w3.org/2000/svg">
<path d="M18.117 3.13965H8.7397C4.66652 3.13965 2.23828 5.56789 2.23828 9.64107V19.0071C2.23828 23.0915 4.66652 25.5198 8.7397 25.5198H18.1058C22.179 25.5198 24.6072 23.0915 24.6072 19.0183V9.64107C24.6184 5.56789 22.1901 3.13965 18.117 3.13965ZM13.4283 18.6714C11.0337 18.6714 9.08659 16.7244 9.08659 14.3297C9.08659 11.935 11.0337 9.98796 13.4283 9.98796C15.823 9.98796 17.7701 11.935 17.7701 14.3297C17.7701 16.7244 15.823 18.6714 13.4283 18.6714ZM20.0528 8.60039C19.9969 8.73467 19.9186 8.85777 19.8179 8.96967C19.706 9.07038 19.5829 9.14871 19.4486 9.20466C19.2449 9.2911 19.0202 9.31491 18.8029 9.27306C18.5857 9.2312 18.3858 9.12558 18.2289 8.96967C18.1282 8.85777 18.0498 8.73467 17.9939 8.60039C17.9364 8.46591 17.906 8.32142 17.9044 8.17517C17.9044 8.0297 17.9379 7.88423 17.9939 7.74995C18.0498 7.60448 18.1282 7.49258 18.2289 7.38068C18.4862 7.12331 18.8779 7.00022 19.236 7.07855C19.3143 7.08974 19.3814 7.11212 19.4486 7.14569C19.5157 7.16807 19.5829 7.20164 19.65 7.2464C19.706 7.27997 19.7619 7.33592 19.8179 7.38068C19.9186 7.49258 19.9969 7.60448 20.0528 7.74995C20.1088 7.88423 20.1424 8.0297 20.1424 8.17517C20.1424 8.32064 20.1088 8.46611 20.0528 8.60039Z" fill="white"/>
</svg>
