<svg width="27" height="28" viewBox="0 0 27 28" fill="none" xmlns="http://www.w3.org/2000/svg">
<path d="M24.5961 13.1844C24.2156 6.69417 18.3184 1.69221 11.5261 2.81122C6.84864 3.58333 3.09997 7.37676 2.37261 12.0542C1.94739 14.7622 2.50689 17.3247 3.72661 19.4396L2.7307 23.1435C2.50689 23.9828 3.27901 24.7437 4.10707 24.5087L7.75503 23.5016C9.41116 24.4752 11.347 25.0347 13.4172 25.0347C19.7284 25.0347 24.9653 19.4732 24.5961 13.1844ZM18.8891 18.0073C18.6193 18.5609 18.1582 18.9981 17.5911 19.2382C17.2554 19.3837 16.8861 19.4508 16.4945 19.4508C15.9238 19.4508 15.3083 19.3165 14.6705 19.0368C13.9907 18.7383 13.3453 18.3669 12.7458 17.929C12.0968 17.459 11.4925 16.9331 10.9106 16.3624C10.3287 15.7805 9.814 15.165 9.34402 14.5272C8.88522 13.8894 8.51595 13.2515 8.24739 12.6137C7.97883 11.9759 7.84455 11.3604 7.84455 10.7785C7.84455 10.3981 7.91169 10.0288 8.04597 9.6931C8.18025 9.34621 8.39286 9.03289 8.69499 8.75313C9.05308 8.39505 9.44473 8.2272 9.85876 8.2272C10.0154 8.2272 10.1721 8.26077 10.3176 8.32791C10.463 8.39505 10.5973 8.49576 10.698 8.64123L11.9961 10.4764C12.0968 10.6219 12.1751 10.745 12.2199 10.8681C12.2758 10.9911 12.2982 11.103 12.2982 11.2149C12.2982 11.3492 12.2534 11.4835 12.1751 11.6178C12.0968 11.7521 11.9961 11.8864 11.8618 12.0206L11.4366 12.4682C11.3694 12.5354 11.347 12.6025 11.347 12.692C11.347 12.7368 11.3582 12.7816 11.3694 12.8263C11.3918 12.8711 11.403 12.9046 11.4142 12.9382C11.5149 13.1284 11.6939 13.3634 11.9401 13.6544C12.464 14.27 13.0365 14.8426 13.6522 15.3665C13.9431 15.6126 14.1893 15.7805 14.3795 15.8812C14.4131 15.8924 14.4467 15.9148 14.4803 15.926C14.525 15.9483 14.5698 15.9483 14.6257 15.9483C14.7264 15.9483 14.7936 15.9148 14.8607 15.8476L15.2859 15.4224C15.4314 15.2769 15.5657 15.1762 15.6888 15.1091C15.8231 15.0308 15.9461 14.986 16.0916 14.986C16.2035 14.986 16.3154 15.0084 16.4385 15.0643C16.5616 15.1203 16.6959 15.1874 16.8302 15.2881L18.6877 16.6086C18.8332 16.7093 18.9339 16.8324 19.001 16.9666C19.057 17.1121 19.0906 17.2464 19.0906 17.403C19.0234 17.5933 18.9787 17.8059 18.8891 18.0073Z" fill="white"/>
</svg>
