<svg width="27" height="28" viewBox="0 0 27 28" fill="none" xmlns="http://www.w3.org/2000/svg">
<path d="M13.4278 13.596C12.6858 13.596 11.9743 13.3013 11.4496 12.7766C10.925 12.252 10.6303 11.5404 10.6303 10.7985C10.6303 10.0565 10.925 9.34499 11.4496 8.82035C11.9743 8.29572 12.6858 8.00098 13.4278 8.00098C14.1697 8.00098 14.8813 8.29572 15.4059 8.82035C15.9305 9.34499 16.2253 10.0565 16.2253 10.7985C16.2253 11.1659 16.1529 11.5296 16.0123 11.8691C15.8717 12.2085 15.6657 12.5169 15.4059 12.7766C15.1461 13.0364 14.8377 13.2425 14.4983 13.3831C14.1589 13.5236 13.7951 13.596 13.4278 13.596ZM13.4278 2.96545C11.3503 2.96545 9.35795 3.79072 7.88897 5.2597C6.41999 6.72868 5.59473 8.72104 5.59473 10.7985C5.59473 16.6733 13.4278 25.3456 13.4278 25.3456C13.4278 25.3456 21.2608 16.6733 21.2608 10.7985C21.2608 8.72104 20.4355 6.72868 18.9666 5.2597C17.4976 3.79072 15.5052 2.96545 13.4278 2.96545Z" fill="white"/>
</svg>
